<?xml version="1.0" encoding="UTF-8"?>
<svg version="1.1" xmlns="http://www.w3.org/2000/svg" width="512" height="512">
<path d="M0 0 C0 12.87 0 25.74 0 39 C-7.92 42.96 -7.92 42.96 -16 47 C-19.44012648 48.91744755 -22.82559953 50.83517939 -26.1875 52.875 C-27.03135254 53.38546875 -27.87520508 53.8959375 -28.74462891 54.421875 C-35.9089797 58.82312661 -42.54573804 63.61079117 -49 69 C-49.57975586 69.47969238 -50.15951172 69.95938477 -50.75683594 70.45361328 C-61.97469241 79.76988437 -71.94969165 89.52304911 -81 101 C-81.81597656 102.010625 -82.63195312 103.02125 -83.47265625 104.0625 C-89.3119763 111.37550474 -94.32391727 118.98922358 -98.93847656 127.12792969 C-99.62624136 128.34085068 -100.3205163 129.55011251 -101.02246094 130.75488281 C-128.19455858 177.49089076 -133.87331735 235.4380086 -120.4675293 287.34204102 C-112.77072657 315.65985135 -99.75676197 342.35447346 -81 365 C-80.27828613 365.87398438 -80.27828613 365.87398438 -79.54199219 366.765625 C-70.22704879 377.97949898 -60.47370755 387.95224923 -49 397 C-47.989375 397.81597656 -46.97875 398.63195312 -45.9375 399.47265625 C-38.04919031 405.77207683 -29.78114267 411.03807539 -21 416 C-20.042146 416.55469971 -20.042146 416.55469971 -19.06494141 417.12060547 C-3.01502449 426.37631187 14.26101592 432.78649006 32.1875 437.375 C33.062854 437.60147217 33.93820801 437.82794434 34.84008789 438.0612793 C44.83757046 440.46425113 54.71272787 441.5303897 65 443 C65 428.48 65 413.96 65 399 C62.36 399 59.72 399 57 399 C54.41796875 398.63623047 54.41796875 398.63623047 52.1875 398.1171875 C51.34799805 397.92286133 50.50849609 397.72853516 49.64355469 397.52832031 C48.77118164 397.31272461 47.89880859 397.09712891 47 396.875 C46.07864258 396.6490918 45.15728516 396.42318359 44.20800781 396.19042969 C14.03840766 388.54606999 -14.2405777 371.96962172 -30.81640625 344.9140625 C-47.82929686 315.39322907 -48.07189663 280.99593598 -39.875 248.6875 C-28.22994839 205.89474002 -4.33650588 167.49492306 23 133 C23.99193359 131.73542969 23.99193359 131.73542969 25.00390625 130.4453125 C29.17721944 125.16754673 33.4942774 120.02102747 37.85424805 114.89770508 C40.86135262 111.3606407 43.82111851 107.78997433 46.75 104.1875 C49.45524021 100.8751592 52.16600155 97.56972498 54.9375 94.3125 C55.48277344 93.66925781 56.02804688 93.02601562 56.58984375 92.36328125 C58 91 58 91 60 91 C60.3403125 90.1646875 60.3403125 90.1646875 60.6875 89.3125 C62.35658001 86.37173998 64.57901141 84.31120629 67 82 C68.58775758 80.44199597 70.17078467 78.87916194 71.75 77.3125 C72.52859375 76.54550781 73.3071875 75.77851562 74.109375 74.98828125 C76.05230615 73.1389301 76.05230615 73.1389301 77 71 C77.66 71 78.32 71 79 71 C79.99 69.02 79.99 69.02 81 67 C85 67 85 67 87.62109375 69.484375 C88.57104498 70.56320074 89.50950321 71.65223214 90.4375 72.75 C93.75231148 76.59352621 97.01558635 79.82542652 101 83 C102.37768793 84.58757008 103.70914795 86.21605342 105 87.875 C108.65386611 92.44233264 112.48750721 96.74573476 116.5 101 C121.94614547 106.79629948 127.03033484 112.78791855 132 119 C132.99294221 120.20335139 133.98786509 121.40507015 134.984375 122.60546875 C169.43714032 164.24351426 202.04751024 214.60497002 210 269 C210.13019531 269.82371094 210.26039063 270.64742188 210.39453125 271.49609375 C214.03417962 299.49712185 208.4669139 328.90675203 191.875 352.0625 C183.09948565 363.21781485 173.19406233 372.67151578 161 380 C160.37673828 380.37608398 159.75347656 380.75216797 159.11132812 381.13964844 C141.82577385 391.35851179 121.20236849 399 101 399 C101 425.73 101 452.46 101 480 C52.88140162 480 52.88140162 480 38 477 C36.51669189 476.70198486 36.51669189 476.70198486 35.00341797 476.39794922 C-3.27743289 468.43147441 -39.51306157 452.68150051 -70 428 C-70.57008789 427.53883789 -71.14017578 427.07767578 -71.72753906 426.60253906 C-122.83580381 384.90506076 -156.6088336 325.7748156 -163.60742188 259.72949219 C-164.41683206 250.96748862 -164.3476775 242.1664582 -164.3125 233.375 C-164.31034485 232.40444672 -164.3081897 231.43389343 -164.30596924 230.43392944 C-164.2549334 216.10569102 -163.90758438 202.07814218 -161 188 C-160.80132324 187.01692871 -160.60264648 186.03385742 -160.39794922 185.02099609 C-151.3757747 141.64021841 -132.22914675 103.11203152 -103.27734375 69.671875 C-101.02650695 67.10864073 -101.02650695 67.10864073 -99.31640625 64.640625 C-98.88199219 64.09921875 -98.44757813 63.5578125 -98 63 C-97.34 63 -96.68 63 -96 63 C-95.73155273 62.40324463 -95.46310547 61.80648926 -95.18652344 61.19165039 C-93.99050396 58.98245969 -92.8383571 57.64164145 -91.015625 55.93359375 C-90.41758057 55.3713208 -89.81953613 54.80904785 -89.20336914 54.22973633 C-88.55875732 53.63829834 -87.91414551 53.04686035 -87.25 52.4375 C-86.5789624 51.81834717 -85.9079248 51.19919434 -85.21655273 50.5612793 C-78.75307853 44.66532226 -72.0463277 39.1823616 -65 34 C-64.09459473 33.33387695 -64.09459473 33.33387695 -63.17089844 32.65429688 C-18.27711331 0 -18.27711331 0 0 0 Z M64 139 C58.15226802 144.99629499 53.03316172 151.63330428 48 158.3125 C47.32066406 159.19228516 46.64132813 160.07207031 45.94140625 160.97851562 C45.30074219 161.82736328 44.66007813 162.67621094 44 163.55078125 C43.4225 164.31044189 42.845 165.07010254 42.25 165.8527832 C40.66459525 168.16205598 40.66459525 168.16205598 41 172 C42.60936043 173.97030868 44.17677479 175.66626675 45.99609375 177.421875 C46.50423111 177.92672424 47.01236847 178.43157349 47.53590393 178.95172119 C48.6098969 180.01530084 49.68863769 181.07410453 50.77172852 182.12841797 C52.43650714 183.74903348 54.08748139 185.38272348 55.73632812 187.01953125 C56.78047835 188.05026145 57.82537496 189.08023621 58.87109375 190.109375 C59.61799721 190.84519806 59.61799721 190.84519806 60.37998962 191.59588623 C62.36091664 193.96794966 62.36091664 193.96794966 65 195 C65 176.52 65 158.04 65 139 C64.67 139 64.34 139 64 139 Z M101 139 C101 157.48 101 175.96 101 195 C105.06621956 191.51466895 108.88676267 188.23815147 112.62109375 184.4765625 C113.41064453 183.68378906 114.20019531 182.89101562 115.01367188 182.07421875 C115.81353516 181.26597656 116.61339844 180.45773438 117.4375 179.625 C118.26443359 178.79355469 119.09136719 177.96210938 119.94335938 177.10546875 C121.96455531 175.0725896 123.98336335 173.03740037 126 171 C124.71314305 168.28288816 123.30015564 165.89894781 121.49609375 163.49609375 C121.0067334 162.84261963 120.51737305 162.18914551 120.01318359 161.51586914 C119.49320801 160.83000732 118.97323242 160.14414551 118.4375 159.4375 C117.90463379 158.73165771 117.37176758 158.02581543 116.82275391 157.29858398 C109.95538383 146.89086014 109.95538383 146.89086014 101 139 Z M19 202 C14.49806716 209.55510539 10.26480588 217.20374575 6.4375 225.125 C6.07914063 225.84679443 5.72078125 226.56858887 5.3515625 227.31225586 C3.56724089 230.9245901 3.56724089 230.9245901 3.06396484 234.85345459 C4.51659456 238.18467097 7.05245891 240.45122543 9.60546875 242.96191406 C10.18922272 243.5477124 10.77297668 244.13351074 11.37442017 244.73706055 C13.3049369 246.67058447 15.24597959 248.59315551 17.1875 250.515625 C18.52947197 251.85453982 19.87085438 253.19404577 21.21166992 254.53411865 C24.02167009 257.3395165 26.83651051 260.13993063 29.65527344 262.93652344 C33.27727908 266.53019234 36.89050008 270.1325331 40.50059509 273.73816299 C43.2692099 276.50263192 46.04064505 279.26425748 48.81314087 282.02483368 C50.14693292 283.35291006 51.48024545 284.6814682 52.81307983 286.01050568 C54.67095259 287.861543 56.53217087 289.7091433 58.39453125 291.55566406 C58.95040924 292.11042419 59.50628723 292.66518433 60.07901001 293.23675537 C62.18968782 295.82954134 62.18968782 295.82954134 65 297 C68.07782534 280.29556332 71.94919634 258.98708579 63.01586914 243.57745361 C57.2782626 235.25729734 49.962123 228.19980678 42.5625 221.375 C42.02643253 220.87969913 41.49036507 220.38439827 40.93805313 219.87408829 C30.6086141 208.77477036 30.6086141 208.77477036 19 202 Z M123.4375 221.375 C122.90441349 221.86667538 122.37132698 222.35835075 121.82208633 222.86492538 C108.73908685 235.04278726 98.7359207 245.83949726 97.85145569 264.60406494 C97.80932359 275.49470604 99.02893578 286.30234377 101 297 C107.97678561 291.26393792 114.33486648 284.90407972 120.75 278.55859375 C121.35161957 277.96354601 121.95323914 277.36849827 122.5730896 276.75541878 C125.7460085 273.61488773 128.9149859 270.47043082 132.08154297 267.32348633 C134.70016314 264.72278566 137.32706827 262.13089939 139.96142578 259.54614258 C143.15336141 256.41420716 146.3305006 253.26797163 149.49743652 250.11076546 C150.70445351 248.91232149 151.91660855 247.71902957 153.13391113 246.53103447 C154.8288357 244.87480377 156.50407136 243.20085393 158.17578125 241.52124023 C158.68266983 241.03435226 159.18955841 240.54746429 159.71180725 240.04582214 C161.26957599 238.52300424 161.26957599 238.52300424 163 236 C162.81146663 232.17425398 161.27968598 229.12597401 159.63671875 225.69140625 C159.16169922 224.69689453 158.68667969 223.70238281 158.19726562 222.67773438 C157.69904297 221.64970703 157.20082031 220.62167969 156.6875 219.5625 C156.20087891 218.53833984 155.71425781 217.51417969 155.21289062 216.45898438 C152.77728748 211.39437219 150.37725469 206.50558235 147 202 C140.6827954 202 128.37754593 216.81063231 123.4375 221.375 Z M-9 276 C-9.67371979 298.80541488 -8.81721229 318.48414992 7.25 336.3125 C22.66573928 352.59343515 43.12170487 360.88700684 65 364 C66.23865314 358.09967064 66.92035709 352.26824369 63.76659012 346.90086746 C59.43965419 341.26527572 54.19856249 336.453976 49.06640625 331.56640625 C47.42893216 329.95440247 45.79469366 328.33910597 44.16355896 326.72068787 C39.8809913 322.48948586 35.55488962 318.30568371 31.21826172 314.13000488 C26.79596814 309.8546739 22.41926158 305.53319097 18.03710938 301.21679688 C11.65188385 294.94256859 5.2533171 288.6825966 -1.18530273 282.46313477 C-1.86431137 281.80409653 -2.54332001 281.14505829 -3.24290466 280.46604919 C-5.75711522 277.44731239 -5.75711522 277.44731239 -9 276 Z M167.18530273 282.46313477 C166.47314606 283.15105103 165.76098938 283.83896729 165.0272522 284.54772949 C158.43961451 290.92348681 151.89517311 297.3435218 145.36381435 303.77687168 C140.97432224 308.09939103 136.57176289 312.40641503 132.1340332 316.67944336 C127.84603069 320.80898 123.59628843 324.97456054 119.37034798 329.16755486 C117.75616927 330.75662559 116.12902005 332.33263586 114.48873711 333.89474678 C104.1604379 343.04498322 104.1604379 343.04498322 99.92472172 355.5468359 C100.03655438 358.42297237 100.40908103 361.18515503 101 364 C125.71899375 360.04812511 147.85261594 350.92056771 163.4375 330.5 C172.39471892 317.39867357 175.53442737 303.9773742 175.1875 288.25 C175.17396484 287.0640625 175.16042969 285.878125 175.14648438 284.65625 C175.11157409 281.77033307 175.06254539 278.88542736 175 276 C172.45878587 276 169.05100466 280.65230521 167.18530273 282.46313477 Z " fill="#4FBF70" transform="translate(170,20)"/>
<path d="M0 0 C45.14450973 -0.59955817 45.14450973 -0.59955817 63 3 C63.98887207 3.19867676 64.97774414 3.39735352 65.99658203 3.60205078 C104.27743289 11.56852559 140.51306157 27.31849949 171 52 C171.57008789 52.46116211 172.14017578 52.92232422 172.72753906 53.39746094 C223.83580381 95.09493924 257.6088336 154.2251844 264.60742188 220.27050781 C265.41683206 229.03251138 265.3476775 237.8335418 265.3125 246.625 C265.31034485 247.59555328 265.3081897 248.56610657 265.30596924 249.56607056 C265.2549334 263.89430898 264.90758438 277.92185782 262 292 C261.80132324 292.98307129 261.60264648 293.96614258 261.39794922 294.97900391 C253.43481453 333.26766427 237.68620042 369.50725618 213 400 C212.53883789 400.57008789 212.07767578 401.14017578 211.60253906 401.72753906 C202.53875543 412.83694596 193.05401385 423.83521761 182 433 C181.10539063 433.7940625 180.21078125 434.588125 179.2890625 435.40625 C158.94747364 453.36362155 129.19532253 475.06665069 102 480 C101 479 101 479 100.88647461 475.39819336 C100.88663375 473.79540144 100.89232937 472.1926044 100.90234375 470.58984375 C100.9037587 469.74780899 100.90517365 468.90577423 100.90663147 468.03822327 C100.91224737 465.33794665 100.92480252 462.63775172 100.9375 459.9375 C100.94251295 458.11132932 100.94707621 456.28515734 100.95117188 454.45898438 C100.96222196 449.97262458 100.97949721 445.48632616 101 441 C102.04043457 440.48775879 103.08086914 439.97551758 104.15283203 439.44775391 C156.73420264 413.44296122 197.51935675 372.09833858 217.04345703 316.00195312 C234.98924511 261.39586236 231.10823799 202.96725155 205.72998047 151.42041016 C197.27087209 134.73477905 186.83788929 119.60662517 174 106 C172.93371819 104.73233809 171.87114244 103.46154859 170.8125 102.1875 C140.25886818 67.45797318 95.87106829 47.07495707 51 39 C50.26346191 38.86722656 49.52692383 38.73445313 48.76806641 38.59765625 C32.7598236 35.89737933 16.14028233 36.86877819 0 37 C0 24.79 0 12.58 0 0 Z " fill="#4FBF70" transform="translate(235,6)"/>
</svg>
