<?xml version="1.0" encoding="UTF-8"?> <svg xmlns="http://www.w3.org/2000/svg" xmlns:xlink="http://www.w3.org/1999/xlink" xml:space="preserve" width="512px" height="512px" version="1.0" style="shape-rendering:geometricPrecision; text-rendering:geometricPrecision; image-rendering:optimizeQuality; fill-rule:evenodd; clip-rule:evenodd" viewBox="0 0 51200 51200"> <defs> <style type="text/css"> .fil0 {fill:#279048} .fil2 {fill:#EB2629} .fil1 {fill:white} .fil4 {fill:#FEFEFE;fill-rule:nonzero} .fil3 {fill:white;fill-rule:nonzero} </style> </defs> <g id="Слой_x0020_1"> <metadata id="CorelCorpID_0Corel-Layer"></metadata> <g id="_1978847647280"> <path class="fil0" d="M25600 206c14025,0 25394,11369 25394,25394 0,14022 -11369,25394 -25394,25394 -14025,0 -25394,-11372 -25394,-25394 0,-14025 11369,-25394 25394,-25394zm0 0z"></path> <path class="fil1" d="M22129 2504c-213,140 -881,796 -1009,810 -152,20 -1139,-363 -1422,-401 -259,249 -844,832 -999,1098l-1328 -227c-162,169 -697,851 -786,1038l-1551 -131 -766 1330 -1343 46 -544 1178 -1502 196c-95,329 -378,1258 -540,1485l-1253 319 -302 1263 -1408 513 -225 1573 -1185 582 -34 1283c-179,174 -1040,677 -1306,812l128 1597 -1036 805c194,1623 620,973 -880,2347 58,370 392,1175 402,1441 9,278 -724,854 -770,1093 -67,376 569,1000 346,1382 -121,200 -621,936 -772,1096 47,191 506,1047 630,1219 317,-20 660,-114 662,-426 -251,-34 -411,65 -580,-44 0,-328 401,-285 616,-691 -389,72 -558,128 -984,62l465 -159c-10,-8 -25,-41 -27,-32l-128 -169c714,-464 351,-130 728,-929 186,-394 53,-810 278,-1352 2,595 70,907 136,1447 82,682 287,549 740,817 -116,239 -148,170 -327,327 97,99 167,99 230,215 -269,87 -288,70 -566,-9l-24 394c292,222 382,106 633,217l20 566c-145,73 -414,165 -521,307 134,192 446,363 646,450 428,187 482,-101 900,-58 116,622 -290,782 -631,1026 498,510 839,121 1360,177 -126,130 -301,208 -484,254l181 220c-310,39 -738,26 -1052,17 -261,-7 -223,-100 -390,-138l-379 55c-10,5 -29,10 -44,15 182,542 467,757 888,1018 496,310 1035,170 1543,34l-677 462c-409,281 -250,252 -864,314 257,107 395,254 772,310 462,68 612,-159 994,-114 -46,450 -252,421 -636,548 133,60 268,31 397,106 -169,43 -341,94 -550,118 -662,77 56,22 -270,184 -484,240 -784,-9 -1103,-136 43,482 193,1060 464,1263 314,240 767,436 1154,610 0,10 -12,14 -12,29 -10,152 -179,72 77,169 131,51 334,48 486,41 -82,153 -143,150 -275,266l-95 97c-7,10 -19,25 -29,39 808,-46 1867,-965 2081,-1483 -497,281 -613,776 -1442,849 87,-162 -7,-26 116,-157 58,-63 51,-43 107,-85 -344,42 -354,191 -733,53 -291,-104 -468,-183 -586,-396 557,29 987,94 1188,-329 -523,113 -530,169 -1050,-19 29,-3 118,-11 143,-18l157 -74 -365 -291c684,-48 1294,0 1870,-271 430,-201 916,-648 921,-1265 -252,143 -442,298 -808,366 162,-174 303,-196 428,-424 -104,46 -527,186 -629,203 -251,47 -558,39 -742,-162 322,-167 738,39 888,-358 -315,-41 -987,39 -1154,-638 866,133 408,522 1519,41 -184,-24 -162,5 -303,-77 378,-117 562,-294 852,-448 -68,-41 -300,-145 -380,-182 -80,218 -150,245 -436,322 -256,70 -389,116 -561,-24 51,-131 155,-107 289,-201 116,-82 152,-157 217,-316 -341,-93 -199,0 -542,-40 29,-225 201,-372 303,-534 278,24 162,90 508,37 483,-76 1163,-95 1110,-775 -201,-133 -440,-72 -230,-447 223,-392 121,-119 191,-612 46,-329 157,-184 199,-641l96 -598c5,-9 15,-29 17,-36 3,-10 10,-26 17,-36 5,10 222,1103 227,1144 37,375 126,220 184,457 70,290 -99,314 -229,416 171,179 341,148 416,443l-387 104c162,145 181,70 275,152 138,121 24,140 157,327 156,215 428,131 733,171 -72,359 -261,281 -505,465 -344,252 -116,281 -707,230 -2,389 281,749 613,847 411,120 104,-56 280,239l395 -92c-153,365 -334,363 -673,539l484 90c-370,181 -636,150 -1021,55 -85,276 -232,301 -63,661 70,152 230,457 322,544 401,377 1122,201 1282,208 -75,322 -358,324 -593,506 -116,89 -21,0 -104,96l421 54c-327,164 -392,200 -801,288l298 215c-525,118 -557,-90 -856,-283 67,459 172,798 382,1120 111,169 196,227 319,435 124,213 135,334 315,441 99,-78 145,-225 181,-383 -12,-9 -36,-31 -44,-16l-219 -69c-78,-31 -134,-69 -192,-123 -121,-111 -196,-193 -189,-430l608 34 -102 -441c300,-223 602,-174 704,-646 -126,-132 -126,-58 -210,-217 121,-124 295,-204 357,-334 49,-102 170,-496 177,-595l-544 14c300,-292 621,-353 663,-836 31,-371 94,-301 172,-610 53,-218 58,-424 161,-622 5,-12 15,-29 24,-41 -91,2100 -294,1821 601,2460l-503 39c101,109 297,244 365,416 -27,360 -133,247 -349,435 97,160 117,95 238,276 127,194 40,167 292,247 370,118 564,53 924,21 -147,271 -210,194 -527,329l145 126c160,114 63,-5 182,153 -315,125 -639,7 -966,157 126,104 269,87 213,312 -38,157 -167,133 -324,288 70,87 -55,-2 123,101 441,257 895,32 1309,-147 -109,186 -518,617 -820,670 469,-17 1093,-542 1340,-764 -89,476 -503,679 -632,1110 -84,276 -82,225 -219,452l336 133c-387,68 -835,-10 -1004,249l527 27c112,605 -206,481 -348,825 590,152 668,75 1197,12 344,-41 1280,327 1231,-85 -4,-51 -29,-99 -40,-150 -44,-181 -44,-152 -22,-360 573,-317 454,-90 667,-941 114,-455 208,-915 331,-1355 156,317 124,1081 114,1493 153,-133 145,-225 365,-365 -24,270 -103,423 -169,650 515,-26 455,-157 866,-396 395,-233 145,-497 411,-833 257,-319 639,-67 992,-232 310,-143 56,-92 438,-138 242,-29 283,-77 324,-326 -421,114 -685,280 -1214,198l295 -182c-329,-198 -689,-142 -769,-408 346,-160 851,143 1630,-378l184 -166c-668,63 -1299,399 -1962,135l-542 -181c931,-441 1164,234 3050,-1248l-1066 82c159,-344 672,-516 933,-1007 260,-488 547,-578 634,-1340 -479,254 -650,1026 -1662,1263 -316,75 -423,169 -684,269 319,-535 963,-608 1161,-1428 -435,-12 -742,233 -1112,336l234 -307c-266,-92 -361,-34 -588,22 278,-384 368,-160 673,-365 227,-155 319,-397 653,-467 604,-124 292,-87 675,-399 210,-169 403,-307 517,-610 -411,-53 -510,126 -892,182l222 -278c-208,-80 -193,-46 -300,-223 121,-298 305,-370 607,-494 296,-118 429,-304 586,-561 -152,-121 -230,-205 -213,-474 585,-474 203,37 580,-870 49,-119 66,-252 100,-390 99,-399 12,-566 65,-912 5,-22 245,-745 259,-772 126,56 63,-106 131,180 72,297 26,655 40,955 22,445 177,656 281,1071 336,114 535,107 535,561 -228,250 -281,112 -491,286 53,244 379,723 611,817 131,54 90,27 216,49l223 51c273,530 -332,660 -542,829 241,552 600,886 1069,1186l210 128c-517,170 -612,36 -1011,-92 155,378 624,830 978,1040 193,116 307,133 341,356 -165,188 -199,111 -417,218l160 121c12,7 27,24 36,31 10,7 25,20 36,31 -669,20 -1066,-396 -1332,-764 84,813 445,675 675,1018 -61,165 -27,75 -134,194 -130,143 -50,-2 -159,198 1268,264 963,-191 1492,-263 22,186 -41,285 -89,428 392,-227 501,-460 650,-960 -413,-34 -432,-117 -805,-141 445,-617 1205,-842 1473,-2087 -65,55 -41,26 -113,116l-269 379c-133,184 -266,291 -428,426l-70 -203 -368 119 709 -762c-80,-64 24,-10 -111,-51 -44,-15 -85,-22 -129,-31 -244,-54 -529,-170 -660,-363l634 2c-337,-160 -453,-211 -646,-494 375,73 529,102 943,66l-229 -172 367 -44c80,-568 -140,-512 237,-856 332,-298 252,-181 288,-672l-208 162c70,-354 303,-644 380,-975 89,-384 -22,-912 135,-1251 111,317 182,823 235,1173 53,366 387,586 457,951 109,561 -145,182 -138,428 5,172 170,172 293,387 193,341 358,298 491,542 114,211 -138,20 143,198 -249,170 -441,276 -847,264 -24,184 0,155 -138,249 83,78 152,150 220,278l-474 -21c-46,1166 1551,904 2124,360l312 -263c-44,752 -428,1281 -1142,1437 92,79 271,200 409,246 332,111 242,-140 501,24 92,189 -119,426 -242,515 -170,124 -450,162 -699,213 215,145 382,179 663,242 -438,431 -1399,-399 -1232,501 169,84 177,41 351,160 116,80 208,149 351,239 457,286 537,37 875,131 131,462 -164,610 -488,873 820,1778 3074,-339 1638,353 -10,-27 -20,-61 -22,-50 -3,2 9,-109 -312,-170 -221,-41 -257,-19 -324,-227 79,-49 -32,-15 135,-46 82,-18 114,-12 198,-20 143,-14 153,-14 296,-70 207,-82 328,-157 498,-254 -39,-251 -215,-341 -141,-626 66,-262 240,-288 405,-455 -102,-235 -129,-186 -54,-491 -324,-165 -532,-94 -626,-496 387,51 273,181 815,85 389,-71 445,-66 428,-494 -121,75 -247,148 -447,136 116,-109 241,-165 254,-315 2,-4 0,-19 0,-24 0,-5 0,-20 0,-27l249 -684c96,-341 203,-1393 285,-1546 286,496 94,1449 266,2001 155,500 319,389 583,546 344,203 20,619 -55,818 323,336 222,160 546,261 191,61 -9,53 165,90 205,-182 222,-230 432,-380 -4,288 -370,687 -488,839l433 -48c-413,430 -453,225 -905,469 305,411 390,165 847,324 650,-522 474,-363 1011,-5 73,165 53,317 -9,455 -98,218 -301,394 -402,506 220,-17 293,-94 416,-3 -157,184 -491,281 -750,353 -438,124 -600,-2 -755,356 61,230 105,285 341,346 206,53 390,106 627,114 -2284,6461 -2535,5783 2348,5634 8968,-196 4309,-874 8358,-3973 283,363 292,595 941,439 305,-76 900,-163 893,-584l-562 221c78,-218 150,-308 317,-446 261,-210 92,-285 300,-508 293,-314 571,-285 752,-810 -261,114 -433,145 -730,225 -327,87 -327,271 -762,114 7,-10 24,-39 29,-29l573 -407c-510,99 -1147,203 -1390,-290 502,43 907,22 1318,-174 -211,-153 -429,-157 -453,-400 269,-74 637,-28 929,-45 426,-27 385,-111 595,-351 203,-228 852,-675 922,-961 -145,37 -523,407 -767,521 -5,-7 0,-32 0,-27 0,7 0,-22 0,-24l0 -155c-276,126 -692,191 -989,75 152,-411 699,-125 1292,-858 -368,-325 -1138,263 -1430,-155 135,-92 288,-78 437,-165 -106,-77 -372,-80 -524,-111 -220,-48 -327,-133 -385,-324 590,-257 1780,208 2175,-820 -194,48 -1403,38 -1667,-20l232 -176c-273,-41 -324,-32 -471,-186 464,14 778,16 1166,-167 285,-136 655,-339 515,-683 -177,119 -765,281 -953,-21 121,-165 268,-116 399,-281 -257,-89 -501,-109 -505,-392 365,-62 343,39 648,-145 -145,-118 -182,-55 -315,-208 262,10 532,44 789,-10 271,-58 423,-101 467,-326 -240,-121 -218,99 -457,-56 38,-295 323,-242 483,-539 -210,58 -474,77 -728,63l305 -131 -109 -184c363,-130 488,-333 520,-735 27,-334 157,-653 242,-1014l51 252c350,-721 343,-460 -235,-1314 -271,-401 -193,-454 257,-1422 186,-399 92,-409 -133,-668 -1224,-1403 -482,-720 -375,-2181 -104,-68 -857,-772 -886,-876 -51,-194 245,-1197 230,-1558 -358,-341 -796,-585 -1151,-926l74 -1306c-278,-272 -783,-450 -1105,-743l-24 -1572 -1364 -649 -179 -1330c-1628,-455 -1193,-448 -1577,-1986l-1459 -351c-170,-421 -286,-897 -457,-1263l-1234 -164c-249,-237 -460,-1074 -718,-1423l-1478 -48 -675 -1122 -1350 80c-140,-254 -672,-989 -885,-1219 -372,-15 -1253,304 -1507,208 -184,-71 -588,-736 -924,-912l-1212 360c-256,-177 -552,-493 -786,-696 -469,-402 -247,-373 -907,-93 -295,126 -743,436 -1036,247l-870 -626c-317,75 -1000,621 -1243,568 -238,-51 -1014,-641 -1203,-665 -194,-24 -914,583 -1125,721 -346,227 -1006,-288 -1400,-380zm0 0z"></path> <path class="fil0" d="M41516 41180l3125 -2641c-130,-53 -169,-128 -215,-314 160,-370 327,-240 777,-366 269,-77 614,-174 776,-365 -128,-94 -203,-15 -430,2 171,-189 619,-556 423,-991 -561,-141 -404,227 -1043,4 -471,-164 -561,92 -873,-333 467,-252 506,-39 934,-484l-447 51c120,-158 498,-569 502,-869 -217,155 -234,206 -444,394 -182,-40 26,-33 -170,-94 -336,-104 -232,78 -563,-269 74,-205 408,-635 55,-844 -273,-161 -440,-48 -602,-566 -177,-568 19,-1553 -276,-2063 -82,157 -193,1243 -293,1594l-256 709c0,5 0,22 0,27 -3,4 0,19 0,24 -12,154 -143,212 -264,324 208,15 339,-63 462,-138 20,440 -38,436 -440,508 -561,99 -443,-34 -842,-87 97,416 312,341 646,512 -77,313 -51,265 56,506 -169,174 -351,201 -419,470 -77,295 107,389 145,648 -174,96 -299,176 -515,261 -147,58 -157,56 -305,70 -87,10 -118,5 -203,22 -171,34 -58,-3 -140,48 70,216 109,194 336,235 332,60 319,176 319,174 5,-10 15,24 25,51 1483,-714 -845,1470 -1691,-363 334,-273 641,-426 505,-902 -350,-97 -432,162 -904,-135 -148,-93 -242,-163 -363,-245 -179,-123 -186,-80 -363,-165 -172,-928 823,-72 1272,-517 -290,-65 -462,-102 -682,-252 257,-51 545,-91 721,-220 126,-92 344,-336 250,-530 -269,-171 -175,87 -519,-26 -142,-48 -326,-172 -423,-254 738,-160 1135,-706 1181,-1483l-324 274c-590,561 -2241,829 -2190,-373l489 24c-70,-135 -143,-208 -227,-290 142,-97 116,-65 142,-257 419,12 617,-96 874,-273 -291,-181 -32,15 -148,-203 -138,-252 -307,-208 -506,-559 -127,-222 -297,-222 -302,-399 -10,-257 254,135 143,-442 -73,-378 -416,-606 -474,-983 -53,-363 -129,-883 -242,-1212 -162,351 -46,898 -138,1292 -82,344 -319,641 -394,1006l215 -167c-36,506 46,387 -295,695 -392,353 -162,295 -244,882l-380 47 235 176c-426,39 -586,7 -973,-67 201,292 320,345 665,510l-655 -2c138,198 430,319 682,374 46,10 89,17 136,32 138,43 31,-12 113,53l-730 786 377 -124 75 214c165,-143 305,-252 440,-443l278 -392c75,-92 51,-61 116,-119 -278,1288 -1059,1520 -1521,2153 384,27 404,111 834,148 -154,515 -268,754 -672,989 48,-147 114,-249 92,-440 -547,73 -233,542 -1541,271 111,-208 31,-56 165,-206 111,-123 75,-29 138,-201 -238,-352 -610,-210 -700,-1049 276,380 685,810 1377,791 -10,-12 -27,-27 -37,-34 -9,-7 -24,-24 -36,-34l-167 -124c227,-111 262,-31 431,-224 -37,-228 -153,-247 -353,-368 -363,-215 -847,-685 -1009,-1074 414,133 510,271 1045,97l-215 -133c-486,-310 -857,-653 -1106,-1224 218,-174 842,-307 559,-854l-230 -53c-130,-24 -87,5 -223,-51 -239,-97 -575,-593 -631,-842 218,-181 271,-38 508,-297 0,-467 -205,-463 -551,-579 -109,-428 -269,-646 -291,-1105 -14,-312 32,-680 -40,-987 -71,-295 -8,-126 -138,-184 -15,27 -262,772 -264,794 -56,357 34,532 -70,943 -34,143 -51,281 -102,401 -389,936 5,412 -598,900 -18,276 61,366 218,489 -162,264 -297,457 -602,581 -314,125 -503,200 -629,508 109,181 95,147 310,229l-230 286c394,-56 498,-242 924,-187 -118,313 -319,455 -537,632 -394,319 -73,283 -697,411 -343,70 -437,322 -675,481 -314,213 -404,-21 -691,376 234,-56 331,-114 607,-22l-590 316c4729,-2305 -293,378 -356,484 271,-101 615,1265 943,1188 1045,-244 1635,-1863 2132,-2124 -90,786 -388,878 -656,1381 -269,508 -799,687 -963,1041l1101 -85c-1948,1529 -2187,834 -3147,1289l559 186c684,271 1335,-75 2024,-142l-188 174c-804,537 -1326,225 -1684,389 82,274 454,218 793,424l-305 186c550,84 821,-87 1254,-206 -44,259 -83,307 -334,339 -395,48 -133,-5 -450,142 -368,170 -762,-91 -1026,240 -276,346 -459,1712 -868,1952 -557,370 2058,782 4770,392 1645,-237 2789,199 3964,186 765,-9 1449,-510 1979,-484 1875,102 2397,315 2813,346zm0 0z"></path> <path class="fil2" d="M14376 12076c1229,-1191 2826,-2719 3812,-3716 987,-994 1754,-566 2274,-164 482,370 4453,4320 5276,5080 873,-716 4467,-4475 5130,-5073 562,-511 1101,-624 1819,-392 513,167 9722,9429 10530,10291 1359,1480 474,2070 -568,3193 -4989,5055 -9674,9716 -14840,14602 -370,351 -1230,1154 -1597,1365 -106,63 -201,103 -297,99 -100,-3 -204,-36 -281,-68 -944,-370 -16422,-15290 -17433,-17022 -332,-728 -293,-1553 324,-2252 235,-266 5846,-5941 5851,-5943zm0 0z"></path> <path class="fil1" d="M20765 21945l-2064 0 0 -1599 2015 0c1251,0 1188,1599 49,1599zm7208 985c844,952 1841,1504 3074,1695 757,116 1635,22 2366,-203 382,-116 752,-319 1089,-522 278,-170 524,-375 754,-603 58,-58 85,-68 143,-133 51,-53 82,-92 133,-145 220,-244 406,-539 573,-830 525,-905 888,-2242 695,-3761 -172,-1350 -682,-2303 -1377,-3082 -51,-58 -63,-67 -116,-114 -276,-280 -586,-527 -931,-735 -767,-464 -1633,-699 -2596,-702 -963,0 -1828,230 -2598,693 -767,464 -1369,1105 -1807,1930 -94,179 -176,360 -249,549l0 -3012 -2784 0 0 2264c-102,-176 -234,-1577 -2186,-2022 -385,-90 -799,-164 -1198,-164 -1781,9 -3582,-24 -5353,-24 0,3483 -24,6894 -24,10386 1978,0 4194,95 6122,-24 395,-26 723,-108 1064,-203 477,-133 895,-346 1256,-685 118,-111 196,-247 319,-338l0 1197 2784 0 0 -2849c3,5 8,7 8,16 24,167 675,1234 839,1421zm-4855 -3968c228,-67 605,-450 774,-660 87,-111 203,-307 266,-450 114,-258 99,-302 155,-494 34,-118 -27,71 12,-38 3,-5 8,-15 8,-17 2,-5 4,-14 9,-19l0 2663c-254,-322 -508,-559 -849,-762 -72,-46 -292,-162 -375,-169l0 -54zm-2808 -960l-1609 0 0 -1516 1463 0c482,0 947,96 1019,684 68,561 -360,832 -873,832zm0 0z"></path> <path class="fil3" d="M20095 28895c-131,89 -310,135 -535,135 -293,0 -520,-87 -680,-261 -157,-172 -237,-431 -237,-779l0 -653 -288 0 0 -774 288 0 0 -714 868 0 0 714 429 0 0 774 -429 0 0 643c0,80 18,140 49,184 34,44 78,65 131,65 74,0 140,-24 196,-70l208 736zm1045 -2194c152,-216 379,-325 679,-325l0 937c-70,-13 -133,-20 -193,-20 -298,0 -446,184 -446,552l0 1137 -868 0 0 -2560 828 0 0 279zm2014 2329c-232,0 -442,-58 -628,-172 -185,-114 -330,-270 -436,-471 -104,-201 -157,-431 -157,-687 0,-255 53,-484 157,-685 106,-201 251,-358 436,-469 186,-114 396,-170 628,-170 235,0 446,56 632,170 186,111 331,268 433,469 104,201 157,430 157,685 0,256 -53,486 -157,687 -102,201 -247,357 -433,471 -186,114 -397,172 -632,172zm0 -825c100,0 182,-43 247,-133 63,-89 94,-213 94,-372 0,-157 -31,-281 -94,-368 -65,-87 -147,-133 -247,-133 -99,0 -181,46 -246,133 -63,87 -95,211 -95,368 0,159 32,283 95,372 65,90 147,133 246,133zm2896 -1829c184,0 353,53 508,162 155,107 278,262 370,465 90,203 135,438 135,701 0,267 -45,499 -135,702 -92,201 -215,356 -370,462 -155,109 -324,162 -508,162 -235,0 -411,-75 -535,-220l0 1081 -868 0 0 -3469 827 0 0 211c126,-169 317,-257 576,-257zm-208 1829c99,0 181,-43 247,-130 62,-88 94,-211 94,-371 0,-157 -32,-282 -94,-370 -66,-89 -148,-135 -247,-135 -99,0 -181,46 -247,135 -63,88 -94,213 -94,370 0,160 31,283 94,371 66,87 148,130 247,130zm1495 -1783l866 0 0 2560 -866 0 0 -2560zm432 -205c-156,0 -283,-51 -377,-153 -96,-99 -145,-230 -145,-384 0,-158 49,-285 145,-387 94,-102 221,-152 377,-152 160,0 286,48 381,145 94,96 142,222 142,374 0,163 -48,296 -142,402 -95,104 -221,155 -381,155zm1825 1979l-138 183 0 603 -869 0 0 -3471 869 0 0 1656 602 -745 1026 0 -869 1111 936 1449 -1047 0 -510 -786zm2634 -1820c367,0 650,102 844,303 194,200 292,510 292,929l0 1374 -807 0 0 -336c-100,256 -298,384 -595,384 -167,0 -307,-36 -424,-106 -116,-71 -206,-165 -266,-286 -58,-119 -89,-254 -89,-404 0,-254 80,-445 237,-575 159,-131 402,-196 723,-196l348 0c-26,-201 -159,-301 -394,-301 -94,0 -191,18 -288,54 -96,36 -181,84 -249,147l-278 -696c121,-90 266,-162 435,-213 172,-51 341,-78 511,-78zm-5 2018c63,0 116,-22 165,-60 50,-42 84,-102 108,-185l0 -176 -215 0c-176,0 -266,70 -266,216 0,58 19,106 58,147 36,38 87,58 150,58zm0 0z"></path> <path class="fil3" d="M21285 30535l0 1265 -486 0 0 -121c-44,48 -98,84 -158,106 -60,25 -123,36 -191,36 -157,0 -283,-48 -377,-145 -94,-99 -143,-247 -143,-442l0 -699 510 0 0 607c0,87 15,150 42,186 26,36 67,56 118,56 51,0 92,-22 126,-63 31,-39 48,-104 48,-191l0 -595 511 0zm225 -450l510 0 0 1715 -510 0 0 -1715zm1802 1671c-75,44 -180,65 -312,65 -175,0 -307,-40 -400,-128 -94,-84 -140,-213 -140,-384l0 -324 -169 0 0 -380 169 0 0 -353 511 0 0 353 251 0 0 380 -251 0 0 319c0,38 9,70 29,92 19,19 43,31 74,31 47,0 83,-12 117,-34l121 363zm614 -1084c90,-106 225,-159 399,-159l0 462c-39,-7 -77,-10 -111,-10 -174,0 -264,90 -264,274l0 561 -508 0 0 -1265 484 0 0 137zm1086 -159c215,0 382,48 496,147 113,100 172,252 172,460l0 680 -474 0 0 -167c-58,126 -174,188 -349,188 -99,0 -181,-16 -251,-50 -68,-37 -119,-83 -155,-143 -36,-58 -53,-126 -53,-199 0,-125 46,-219 140,-285 94,-63 235,-96 423,-96l206 0c-17,-100 -94,-148 -232,-148 -56,0 -112,10 -170,27 -55,16 -106,41 -145,72l-164 -343c73,-47 157,-80 256,-107 102,-24 201,-36 300,-36zm-2 994c36,0 67,-9 96,-29 29,-19 51,-51 63,-89l0 -90 -125 0c-105,0 -155,36 -155,106 0,30 10,54 31,73 22,20 51,29 90,29zm2476 249c-77,44 -181,65 -314,65 -172,0 -305,-40 -399,-128 -92,-84 -138,-213 -138,-384l0 -324 -169 0 0 -380 169 0 0 -353 508 0 0 353 254 0 0 380 -254 0 0 319c0,38 10,70 29,92 22,19 46,31 78,31 43,0 82,-12 116,-34l120 363zm615 -1084c89,-106 223,-159 399,-159l0 462c-41,-7 -77,-10 -114,-10 -174,0 -261,90 -261,274l0 561 -510 0 0 -1265 486 0 0 137zm1086 -159c215,0 380,48 496,147 114,100 172,252 172,460l0 680 -475 0 0 -167c-58,126 -176,188 -350,188 -97,0 -181,-16 -249,-50 -68,-37 -121,-83 -155,-143 -37,-58 -53,-126 -53,-199 0,-125 46,-219 140,-285 92,-63 235,-96 424,-96l205 0c-17,-100 -94,-148 -232,-148 -56,0 -111,10 -169,27 -58,16 -107,41 -148,72l-162 -343c70,-47 157,-80 256,-107 99,-24 199,-36 300,-36zm-2 994c36,0 68,-9 97,-29 29,-19 48,-51 62,-89l0 -90 -125 0c-104,0 -158,36 -158,106 0,30 13,54 34,73 22,20 51,29 90,29zm890 -972l510 0 0 1265 -510 0 0 -1265zm254 -102c-89,0 -165,-24 -220,-75 -58,-51 -85,-114 -85,-191 0,-77 27,-140 85,-191 55,-49 131,-75 220,-75 94,0 169,24 225,73 56,48 82,109 82,183 0,82 -26,148 -82,198 -56,54 -131,78 -225,78zm0 0z"></path> <path class="fil3" d="M30810 30085l511 0 0 1715 -511 0 0 -1715zm0 0z"></path> <path class="fil2" d="M30825 23440c-12,17 10,27 17,29 31,7 51,-95 104,-131 38,-24 114,3 135,32 53,73 102,254 109,242 44,-58 191,-905 240,-1069 60,-201 200,-492 210,-682 17,-339 -65,-537 -19,-847 34,-254 29,-247 96,-491 46,-155 87,-308 126,-467 17,-68 58,-269 92,-390 56,-188 119,-2 181,107 66,123 114,401 211,481 61,54 72,160 92,252 36,150 135,355 196,493 46,100 31,189 27,307 -5,105 -3,221 -8,327 -10,145 22,469 85,593 77,145 164,314 220,479 58,167 181,433 198,619l46 0c12,0 78,-24 92,-29l232 -46c3,-2 8,-2 10,-2 -10,-8 -22,-15 -31,-22 -22,-129 -44,-259 -64,-385 -36,-206 -84,-389 -79,-612 17,-585 -135,-614 -220,-1154 -27,-200 -68,-418 -63,-619 7,-334 -56,-900 -114,-1239 -48,-280 -184,-312 -145,-452 15,-63 66,0 162,-67 15,-18 27,-25 41,-37 51,-39 75,-85 111,-140 75,-133 530,-605 586,-704 55,-106 131,-240 131,-363 0,-51 -13,-104 -22,-153 -17,-89 -83,-135 -138,-203 -27,-31 -56,-65 -78,-96 -50,-68 -106,-131 -157,-196 -53,-66 -113,-126 -169,-187 -114,-123 -179,-275 -343,-353 -90,-46 -172,-43 -254,-108 -102,-80 -194,-163 -310,-216 -46,-19 -92,-31 -109,-72 -20,-78 -53,-199 -49,-278 0,-34 3,-134 22,-165 25,-39 76,-82 78,-85 38,-48 67,-196 26,-263 -164,-278 -4,-259 -159,-394 -15,-15 -29,-32 -47,-47 -65,-51 -370,-109 -507,42 -179,171 -106,70 -177,309 36,135 -53,146 49,327 24,41 46,38 60,51 27,24 36,38 145,278 20,51 20,114 -9,154 -47,73 -163,87 -250,116 -80,27 -55,32 -145,10 -46,-12 -295,5 -345,17 -107,20 -153,78 -274,87 -138,15 -194,-12 -346,-36 -10,-44 58,-293 68,-358 41,-199 41,-184 140,-351 136,-225 56,-145 269,-205 72,-22 106,-42 193,-32 97,12 157,-89 85,-164 -29,-66 14,-107 -92,-140 -36,-13 -75,-25 -112,-39 -40,-17 -40,-41 -82,-73 -36,5 -116,61 -152,77 -167,97 -104,133 -206,264 -36,46 -55,97 -97,152 -60,85 -357,477 -381,576 -37,138 -61,254 -95,387 -75,296 138,298 411,392 203,71 537,20 755,58 201,481 155,412 208,915 9,145 68,355 109,484 41,118 -39,362 -63,479 -55,222 -153,439 -191,669 -15,85 -20,170 -34,257 -24,186 7,377 -17,563 -19,107 -29,140 -34,262 -4,212 0,321 83,513 67,169 -58,290 19,500 41,106 -70,218 -99,453 -10,84 -25,169 -34,254 -29,246 27,442 12,544 -32,223 -68,873 -162,1011zm1991 -6456c21,-3 43,-25 65,-36 22,-13 46,-15 70,9 27,24 56,73 82,111 27,39 51,68 82,92 30,24 66,49 95,63 29,17 53,22 70,32 99,53 118,19 109,70 -5,22 -10,39 -22,53 -10,17 -24,29 -39,56 -19,33 -33,82 -51,118 -45,107 -84,220 -120,334 -29,99 -90,198 -145,298 -95,183 -95,254 -196,239 -37,-53 -68,-96 -105,-147 -80,-112 -58,-492 -33,-627 26,-116 75,-232 101,-368 17,-97 30,-195 37,-297zm0 0z"></path> <path class="fil2" d="M33057 23002c0,31 20,92 29,140 13,49 17,83 22,107 2,22 5,31 0,51 -5,19 -14,48 -24,70 -10,22 -22,36 -32,46 -7,7 -11,9 -19,16 -7,6 -14,18 -24,37 -10,22 -22,51 -29,82 -7,29 -10,61 -10,87 0,29 5,59 15,83 7,23 19,48 31,60 10,12 22,14 39,19 17,3 41,8 75,10 34,5 78,10 104,7 27,0 36,-7 43,-9 5,-3 5,-3 27,12 22,17 68,51 97,70 27,19 36,24 46,24 10,2 19,2 29,7 12,5 22,15 46,27 24,12 60,24 99,32 41,9 85,11 128,11 44,-2 87,-9 128,-19 44,-10 85,-22 117,-34 31,-12 53,-22 70,-34 19,-14 36,-29 48,-46 10,-16 17,-36 14,-70 -2,-36 -9,-84 -55,-135 -46,-54 -126,-107 -196,-141 -68,-33 -123,-45 -162,-65 -41,-19 -66,-44 -80,-58 -15,-17 -17,-24 -19,-31 -3,-5 -3,-10 0,-17 4,-5 12,-10 17,-20 5,-7 7,-16 -5,-24 -10,-7 -32,-10 -44,-12 -12,-2 -12,-5 -17,-9 -5,-3 -12,-10 -24,-10 -12,0 -29,7 -41,5 -9,-5 -14,-20 -27,-56 -9,-37 -29,-92 -40,-143 -15,-48 -22,-94 -42,-116 -16,-21 -46,-17 -80,-12 -34,5 -70,12 -99,17 -26,7 -41,12 -62,12 -20,0 -44,-2 -64,-2 -16,0 -31,2 -29,31zm0 0z"></path> <path class="fil2" d="M31279 23130c-2,32 -19,92 -31,138 -12,48 -17,82 -19,106 -5,22 -5,34 -2,54 4,19 14,46 24,68 12,21 24,36 31,45 10,8 14,10 19,18 8,7 15,16 24,38 10,20 22,51 29,80 8,29 13,60 10,89 0,29 -5,56 -12,80 -7,27 -20,49 -31,61 -12,12 -25,17 -42,19 -16,3 -38,7 -72,10 -34,4 -80,10 -107,10 -26,-3 -36,-10 -40,-13 -5,-2 -5,-2 -29,15 -22,17 -69,51 -95,68 -29,19 -36,24 -46,26 -10,3 -19,0 -31,5 -10,5 -22,15 -46,27 -22,12 -58,24 -100,33 -38,8 -84,13 -128,10 -43,-2 -84,-7 -128,-17 -41,-9 -85,-24 -116,-33 -32,-13 -51,-25 -70,-37 -20,-12 -36,-29 -46,-46 -12,-17 -17,-36 -17,-70 3,-34 12,-85 56,-136 45,-50 128,-106 196,-137 67,-34 123,-49 164,-68 39,-19 66,-41 77,-58 15,-17 20,-24 22,-32 3,-4 3,-9 -2,-14 -2,-8 -13,-12 -17,-19 -5,-10 -7,-20 4,-25 11,-7 32,-12 44,-14 12,-3 15,-5 17,-8 5,-4 12,-11 24,-11 15,2 29,9 42,4 9,-4 14,-19 26,-55 12,-34 29,-90 43,-141 13,-51 20,-96 40,-118 18,-20 45,-17 79,-12 34,7 73,12 99,19 27,5 44,10 63,10 20,0 44,0 63,-3 19,0 34,3 31,34zm0 0z"></path> <path class="fil4" d="M19833 44101l0 1491 -4572 0 0 -1181 2062 -1907c179,-168 299,-312 358,-432 60,-119 90,-236 90,-350 0,-142 -48,-251 -143,-330 -95,-79 -232,-118 -411,-118 -174,0 -337,46 -489,138 -152,92 -269,223 -350,391l-1451 -725c217,-407 535,-729 954,-966 418,-236 923,-354 1515,-354 451,0 850,73 1198,220 348,147 619,356 815,627 195,272 293,584 293,937 0,316 -66,610 -199,885 -134,274 -393,585 -779,933l-814 741 1923 0zm2974 1622c-505,0 -952,-119 -1341,-355 -388,-236 -692,-578 -912,-1027 -220,-448 -330,-981 -330,-1601 0,-619 110,-1153 330,-1601 220,-448 524,-790 912,-1027 389,-236 836,-354 1341,-354 505,0 952,118 1340,354 388,237 693,579 913,1027 220,448 330,982 330,1601 0,620 -110,1153 -330,1601 -220,449 -525,791 -913,1027 -388,236 -835,355 -1340,355zm0 -1540c434,0 652,-481 652,-1443 0,-961 -218,-1442 -652,-1442 -435,0 -652,481 -652,1442 0,962 217,1443 652,1443zm7537 -82l0 1491 -4571 0 0 -1181 2061 -1907c179,-168 299,-312 359,-432 59,-119 89,-236 89,-350 0,-142 -47,-251 -142,-330 -95,-79 -232,-118 -412,-118 -174,0 -337,46 -489,138 -152,92 -269,223 -350,391l-1450 -725c217,-407 535,-729 953,-966 418,-236 923,-354 1516,-354 450,0 850,73 1197,220 348,147 620,356 815,627 196,272 293,584 293,937 0,316 -66,610 -199,885 -133,274 -393,585 -778,933l-815 741 1923 0zm5924 513l-758 0 0 978 -1866 0 0 -978 -2958 0 0 -1222 2420 -3504 1972 0 -2151 3235 774 0 0 -872 1809 0 0 872 758 0 0 1491z"></path> </g> </g> </svg> 